<svg id="Layer_1" data-name="Layer 1" xmlns="http://www.w3.org/2000/svg" xmlns:xlink="http://www.w3.org/1999/xlink" viewBox="0 0 1024 523"><defs><style>.cls-1,.cls-2{fill:none;}.cls-2{clip-rule:evenodd;}.cls-3{clip-path:url(#clip-path);}.cls-4{clip-path:url(#clip-path-2);}.cls-5{clip-path:url(#clip-path-3);}.cls-6{clip-path:url(#clip-path-4);}.cls-7{clip-path:url(#clip-path-5);}.cls-8{clip-path:url(#clip-path-6);}.cls-9{clip-path:url(#clip-path-7);}.cls-10{clip-path:url(#clip-path-8);}.cls-11{clip-path:url(#clip-path-9);}.cls-12{clip-path:url(#clip-path-10);}.cls-13{clip-path:url(#clip-path-11);}.cls-14{clip-path:url(#clip-path-12);}.cls-15{clip-path:url(#clip-path-13);}.cls-16{clip-path:url(#clip-path-14);}.cls-17{clip-path:url(#clip-path-15);}.cls-18{clip-path:url(#clip-path-16);}.cls-19{clip-path:url(#clip-path-17);}.cls-20{clip-path:url(#clip-path-18);}.cls-21{clip-path:url(#clip-path-19);}.cls-22{clip-path:url(#clip-path-20);}.cls-23{clip-path:url(#clip-path-21);}.cls-24{clip-path:url(#clip-path-22);}.cls-25{clip-path:url(#clip-path-23);}.cls-26{clip-path:url(#clip-path-24);}.cls-27{clip-path:url(#clip-path-25);}.cls-28{clip-path:url(#clip-path-26);}.cls-29{clip-path:url(#clip-path-27);}.cls-30{clip-path:url(#clip-path-28);}.cls-31{clip-path:url(#clip-path-29);}.cls-32{fill:#eddfd6;}.cls-33{opacity:0.13;}.cls-33,.cls-39,.cls-80{isolation:isolate;}.cls-34{clip-path:url(#clip-path-31);}.cls-35{clip-path:url(#clip-path-32);}.cls-36{clip-path:url(#clip-path-33);}.cls-37{fill:#ef8981;}.cls-38{clip-path:url(#clip-path-34);}.cls-40{clip-path:url(#clip-path-36);}.cls-41{clip-path:url(#clip-path-37);}.cls-42{clip-path:url(#clip-path-38);}.cls-43{fill:#ed6655;}.cls-44{clip-path:url(#clip-path-39);}.cls-45{clip-path:url(#clip-path-41);}.cls-46{clip-path:url(#clip-path-43);}.cls-47{clip-path:url(#clip-path-45);}.cls-48{clip-path:url(#clip-path-47);}.cls-49{clip-path:url(#clip-path-49);}.cls-50{clip-path:url(#clip-path-51);}.cls-51{clip-path:url(#clip-path-53);}.cls-52{clip-path:url(#clip-path-55);}.cls-53{clip-path:url(#clip-path-57);}.cls-54{clip-path:url(#clip-path-59);}.cls-55{clip-path:url(#clip-path-61);}.cls-56{clip-path:url(#clip-path-63);}.cls-57{clip-path:url(#clip-path-65);}.cls-58{clip-path:url(#clip-path-67);}.cls-59{clip-path:url(#clip-path-69);}.cls-60{clip-path:url(#clip-path-71);}.cls-61{clip-path:url(#clip-path-73);}.cls-62{clip-path:url(#clip-path-75);}.cls-63{clip-path:url(#clip-path-77);}.cls-64{clip-path:url(#clip-path-79);}.cls-65{clip-path:url(#clip-path-81);}.cls-66{clip-path:url(#clip-path-83);}.cls-67{clip-path:url(#clip-path-85);}.cls-68{clip-path:url(#clip-path-87);}.cls-69{clip-path:url(#clip-path-89);}.cls-70{clip-path:url(#clip-path-91);}.cls-71{clip-path:url(#clip-path-93);}.cls-72{clip-path:url(#clip-path-95);}.cls-73{clip-path:url(#clip-path-97);}.cls-74{clip-path:url(#clip-path-99);}.cls-75{clip-path:url(#clip-path-101);}.cls-76{clip-path:url(#clip-path-103);}.cls-77{clip-path:url(#clip-path-105);}.cls-78{clip-path:url(#clip-path-107);}.cls-79{clip-path:url(#clip-path-108);}.cls-80{opacity:0.13;}.cls-81{clip-path:url(#clip-path-110);}.cls-82{clip-path:url(#clip-path-112);}.cls-83{clip-path:url(#clip-path-114);}.cls-84{clip-path:url(#clip-path-115);}.cls-85{clip-path:url(#clip-path-116);}.cls-86{clip-path:url(#clip-path-117);}.cls-87{clip-path:url(#clip-path-119);}.cls-88{clip-path:url(#clip-path-121);}.cls-89{clip-path:url(#clip-path-123);}.cls-90{clip-path:url(#clip-path-125);}.cls-91{clip-path:url(#clip-path-127);}.cls-92{clip-path:url(#clip-path-129);}.cls-93{clip-path:url(#clip-path-131);}.cls-94{clip-path:url(#clip-path-133);}.cls-95{clip-path:url(#clip-path-135);}.cls-96{clip-path:url(#clip-path-137);}.cls-97{clip-path:url(#clip-path-139);}.cls-98{clip-path:url(#clip-path-141);}.cls-99{clip-path:url(#clip-path-143);}.cls-100{clip-path:url(#clip-path-145);}.cls-101{clip-path:url(#clip-path-147);}.cls-102{clip-path:url(#clip-path-149);}.cls-103{clip-path:url(#clip-path-151);}.cls-104{clip-path:url(#clip-path-153);}</style><clipPath id="clip-path"><rect class="cls-1" x="-524.41" y="-1644.7" width="156.95" height="48.35"/></clipPath><clipPath id="clip-path-2"><path class="cls-2" d="M-368.59-1602.07a4.55,4.55,0,0,1-4.46,4.63H-519a4.55,4.55,0,0,1-4.47-4.63v-37a4.56,4.56,0,0,1,4.47-4.64H-373a4.55,4.55,0,0,1,4.46,4.64v37h0"/></clipPath><clipPath id="clip-path-3"><path class="cls-2" d="M-489.44-1620.81a7,7,0,0,1,3.21-5.89,6.81,6.81,0,0,0-5.44-3.06c-2.29-.25-4.51,1.42-5.67,1.42s-3-1.4-4.92-1.36a7.21,7.21,0,0,0-6.09,3.87c-2.64,4.75-.67,11.72,1.86,15.56,1.26,1.88,2.74,4,4.67,3.9s2.6-1.25,4.88-1.25,2.92,1.25,4.89,1.21,3.31-1.89,4.52-3.78a15.84,15.84,0,0,0,2.07-4.39,6.74,6.74,0,0,1-4-6.24"/></clipPath><clipPath id="clip-path-4"><path class="cls-2" d="M-493.16-1632.28a7.09,7.09,0,0,0,1.52-4.95,6.67,6.67,0,0,0-4.37,2.35,6.74,6.74,0,0,0-1.56,4.76,5.5,5.5,0,0,0,4.41-2.17"/></clipPath><clipPath id="clip-path-5"><path class="cls-2" d="M-462.09-1606.63h-2.64l-1.45-4.73h-5l-1.38,4.73h-2.57l5-16.1h3.08Zm-4.52-6.71-1.31-4.2q-.21-.65-.78-3h0q-.23,1-.74,3l-1.29,4.2Z"/></clipPath><clipPath id="clip-path-6"><path class="cls-2" d="M-449.27-1612.57a6.76,6.76,0,0,1-1.54,4.68,4.42,4.42,0,0,1-3.42,1.53,3.38,3.38,0,0,1-3.17-1.65h0v6.12h-2.48v-12.52q0-1.86-.09-3.82h2.18l.14,1.84h0a4.09,4.09,0,0,1,3.77-2.08,4.08,4.08,0,0,1,3.3,1.62A6.57,6.57,0,0,1-449.27-1612.57Zm-2.53.09a4.92,4.92,0,0,0-.74-2.8,2.51,2.51,0,0,0-2.16-1.15,2.51,2.51,0,0,0-1.66.63,3,3,0,0,0-1,1.66,3.49,3.49,0,0,0-.12.79v1.94a3.17,3.17,0,0,0,.75,2.14,2.43,2.43,0,0,0,1.94.87,2.51,2.51,0,0,0,2.18-1.12A5.1,5.1,0,0,0-451.8-1612.48Z"/></clipPath><clipPath id="clip-path-7"><path class="cls-2" d="M-436.43-1612.57a6.76,6.76,0,0,1-1.54,4.68,4.42,4.42,0,0,1-3.42,1.53,3.38,3.38,0,0,1-3.17-1.65h0v6.12h-2.48v-12.52q0-1.86-.09-3.82H-445l.14,1.84h0a4.09,4.09,0,0,1,3.77-2.08,4.08,4.08,0,0,1,3.3,1.62A6.58,6.58,0,0,1-436.43-1612.57Zm-2.53.09a4.93,4.93,0,0,0-.74-2.8,2.51,2.51,0,0,0-2.16-1.15,2.52,2.52,0,0,0-1.67.63,3,3,0,0,0-1,1.66,3.56,3.56,0,0,0-.12.79v1.94a3.18,3.18,0,0,0,.74,2.14,2.44,2.44,0,0,0,1.94.87,2.51,2.51,0,0,0,2.18-1.12A5.09,5.09,0,0,0-439-1612.48Z"/></clipPath><clipPath id="clip-path-8"><path class="cls-2" d="M-422.08-1611.14a4.37,4.37,0,0,1-1.37,3.34,5.94,5.94,0,0,1-4.22,1.41,7.16,7.16,0,0,1-4-1l.57-2.15a6.6,6.6,0,0,0,3.58,1,3.29,3.29,0,0,0,2.18-.66,2.18,2.18,0,0,0,.78-1.76,2.29,2.29,0,0,0-.64-1.65,5.93,5.93,0,0,0-2.13-1.25q-4.07-1.58-4.07-4.62a4.16,4.16,0,0,1,1.42-3.25,5.48,5.48,0,0,1,3.79-1.27,7.26,7.26,0,0,1,3.51.76l-.62,2.1a5.91,5.91,0,0,0-3-.74,2.92,2.92,0,0,0-2,.67,2,2,0,0,0-.62,1.46,2,2,0,0,0,.71,1.58,7.91,7.91,0,0,0,2.25,1.24,7.62,7.62,0,0,1,2.94,2,4.2,4.2,0,0,1,.94,2.8"/></clipPath><clipPath id="clip-path-9"><path class="cls-2" d="M-413.88-1616.3h-2.73v5.64q0,2.15,1.45,2.15a4.31,4.31,0,0,0,1.1-.12l.07,2a5.41,5.41,0,0,1-1.93.29,2.92,2.92,0,0,1-2.3-.93,4.71,4.71,0,0,1-.83-3.13v-5.85h-1.63v-1.94h1.63v-2.13l2.44-.76v2.89h2.73v1.94"/></clipPath><clipPath id="clip-path-10"><path class="cls-2" d="M-401.55-1612.53a6.53,6.53,0,0,1-1.47,4.4,5.16,5.16,0,0,1-4.09,1.77,4.9,4.9,0,0,1-3.91-1.7,6.33,6.33,0,0,1-1.46-4.28,6.46,6.46,0,0,1,1.5-4.42,5.11,5.11,0,0,1,4.05-1.72,5,5,0,0,1,4,1.7A6.27,6.27,0,0,1-401.55-1612.53Zm-2.57.08a5.39,5.39,0,0,0-.67-2.76,2.44,2.44,0,0,0-2.23-1.39,2.47,2.47,0,0,0-2.27,1.39,5.49,5.49,0,0,0-.67,2.8,5.39,5.39,0,0,0,.67,2.76,2.49,2.49,0,0,0,2.25,1.39,2.47,2.47,0,0,0,2.23-1.41A5.4,5.4,0,0,0-404.12-1612.44Z"/></clipPath><clipPath id="clip-path-11"><path class="cls-2" d="M-393.49-1616a4.14,4.14,0,0,0-.78-.07,2.32,2.32,0,0,0-2,1,4,4,0,0,0-.62,2.29v6.09h-2.48l0-8q0-2-.09-3.66h2.16l.09,2.22h.07a4,4,0,0,1,1.24-1.84,2.92,2.92,0,0,1,1.79-.62,3.83,3.83,0,0,1,.62,0v2.46"/></clipPath><clipPath id="clip-path-12"><path class="cls-2" d="M-382.4-1613a6.28,6.28,0,0,1-.09,1.17h-7.44a3.44,3.44,0,0,0,1.08,2.63,3.59,3.59,0,0,0,2.43.81,7.94,7.94,0,0,0,3-.55l.39,1.79a9,9,0,0,1-3.74.72,5.3,5.3,0,0,1-4.08-1.59,6,6,0,0,1-1.48-4.26,6.82,6.82,0,0,1,1.38-4.37,4.68,4.68,0,0,1,3.9-1.86,4.11,4.11,0,0,1,3.65,1.86A6.46,6.46,0,0,1-382.4-1613Zm-2.36-.67a3.62,3.62,0,0,0-.48-2,2.15,2.15,0,0,0-2-1.07,2.33,2.33,0,0,0-2,1.05,3.92,3.92,0,0,0-.73,2Z"/></clipPath><clipPath id="clip-path-13"><path class="cls-2" d="M-467.43-1632.63a4.05,4.05,0,0,1-1.23,3.22,4.77,4.77,0,0,1-3.24,1,14.71,14.71,0,0,1-1.78-.09v-7.78a12.66,12.66,0,0,1,2.1-.16,4.41,4.41,0,0,1,3,.9A3.72,3.72,0,0,1-467.43-1632.63Zm-1.29,0a3,3,0,0,0-.71-2.12,2.71,2.71,0,0,0-2.06-.74,5,5,0,0,0-1,.08v5.92a6.19,6.19,0,0,0,.82,0,2.82,2.82,0,0,0,2.16-.81A3.32,3.32,0,0,0-468.72-1632.6Z"/></clipPath><clipPath id="clip-path-14"><path class="cls-2" d="M-460.62-1631.39a3.21,3.21,0,0,1-.72,2.16,2.53,2.53,0,0,1-2,.87,2.41,2.41,0,0,1-1.92-.83,3.11,3.11,0,0,1-.72-2.1,3.18,3.18,0,0,1,.74-2.17,2.51,2.51,0,0,1,2-.84,2.46,2.46,0,0,1,1.94.83A3.09,3.09,0,0,1-460.62-1631.39Zm-1.26,0a2.65,2.65,0,0,0-.33-1.35,1.2,1.2,0,0,0-1.09-.68,1.21,1.21,0,0,0-1.12.68,2.71,2.71,0,0,0-.33,1.38,2.67,2.67,0,0,0,.33,1.36,1.22,1.22,0,0,0,1.11.68,1.21,1.21,0,0,0,1.09-.69A2.65,2.65,0,0,0-461.88-1631.35Z"/></clipPath><clipPath id="clip-path-15"><path class="cls-2" d="M-451.48-1634.2l-1.72,5.7h-1.12L-455-1631q-.27-.93-.44-1.84h0a13.89,13.89,0,0,1-.44,1.84l-.76,2.48h-1.13l-1.61-5.7h1.25l.62,2.71q.23,1,.37,1.83h0q.14-.72.45-1.82l.78-2.72h1l.75,2.66q.27,1,.44,1.88h0a18.28,18.28,0,0,1,.37-1.88l.67-2.66h1.2"/></clipPath><clipPath id="clip-path-16"><path class="cls-2" d="M-445.16-1628.49h-1.22v-3.27q0-1.51-1.1-1.51a1.08,1.08,0,0,0-.88.42,1.5,1.5,0,0,0-.34,1v3.38h-1.22v-4.07q0-.75,0-1.63h1.07l.06.89h0a1.79,1.79,0,0,1,.63-.69,2,2,0,0,1,1.1-.32,1.71,1.71,0,0,1,1.28.52,2.57,2.57,0,0,1,.63,1.89v3.42"/></clipPath><clipPath id="clip-path-17"><rect class="cls-1" x="-443.02" y="-1636.81" width="1.22" height="8.32"/></clipPath><clipPath id="clip-path-18"><path class="cls-2" d="M-434.62-1631.39a3.21,3.21,0,0,1-.72,2.16,2.53,2.53,0,0,1-2,.87,2.4,2.4,0,0,1-1.92-.83,3.11,3.11,0,0,1-.72-2.1,3.18,3.18,0,0,1,.74-2.17,2.51,2.51,0,0,1,2-.84,2.46,2.46,0,0,1,1.94.83A3.08,3.08,0,0,1-434.62-1631.39Zm-1.27,0a2.66,2.66,0,0,0-.33-1.35,1.2,1.2,0,0,0-1.09-.68,1.21,1.21,0,0,0-1.12.68,2.71,2.71,0,0,0-.33,1.38,2.67,2.67,0,0,0,.33,1.36,1.22,1.22,0,0,0,1.11.68,1.21,1.21,0,0,0,1.09-.69A2.64,2.64,0,0,0-435.89-1631.35Z"/></clipPath><clipPath id="clip-path-19"><path class="cls-2" d="M-428.72-1628.49h-1.09l-.09-.66h0a1.85,1.85,0,0,1-1.6.79,1.62,1.62,0,0,1-1.25-.52,1.66,1.66,0,0,1-.43-1.16,1.79,1.79,0,0,1,.84-1.6,4.25,4.25,0,0,1,2.36-.54v-.11a1,1,0,0,0-1.14-1.13,2.46,2.46,0,0,0-1.43.42l-.25-.83a3.41,3.41,0,0,1,1.88-.49q2.15,0,2.15,2.36v2.1A9.27,9.27,0,0,0-428.72-1628.49Zm-1.27-2v-.88q-2,0-2,1.15a.88.88,0,0,0,.23.67.83.83,0,0,0,.6.22,1.19,1.19,0,0,0,.74-.26,1.08,1.08,0,0,0,.42-.67A1.14,1.14,0,0,0-430-1630.45Z"/></clipPath><clipPath id="clip-path-20"><path class="cls-2" d="M-421.8-1628.49h-1.08l-.06-.92h0a1.81,1.81,0,0,1-1.76,1,2,2,0,0,1-1.65-.81,3.24,3.24,0,0,1-.65-2.1,3.39,3.39,0,0,1,.71-2.24,2.15,2.15,0,0,1,1.69-.8,1.63,1.63,0,0,1,1.54.77h0v-3.27h1.22v6.78Q-421.84-1629.2-421.8-1628.49Zm-1.26-2.41v-1a1.94,1.94,0,0,0,0-.4,1.46,1.46,0,0,0-.44-.77,1.17,1.17,0,0,0-.82-.31,1.24,1.24,0,0,0-1.07.56,2.49,2.49,0,0,0-.39,1.44,2.32,2.32,0,0,0,.37,1.37,1.24,1.24,0,0,0,1.07.56,1.16,1.16,0,0,0,1-.47A1.6,1.6,0,0,0-423.06-1630.9Z"/></clipPath><clipPath id="clip-path-21"><path class="cls-2" d="M-411.37-1631.39a3.21,3.21,0,0,1-.72,2.16,2.53,2.53,0,0,1-2,.87,2.41,2.41,0,0,1-1.92-.83,3.11,3.11,0,0,1-.72-2.1,3.18,3.18,0,0,1,.74-2.17,2.51,2.51,0,0,1,2-.84,2.46,2.46,0,0,1,1.94.83A3.08,3.08,0,0,1-411.37-1631.39Zm-1.26,0a2.66,2.66,0,0,0-.33-1.35,1.2,1.2,0,0,0-1.1-.68,1.22,1.22,0,0,0-1.12.68,2.71,2.71,0,0,0-.33,1.38,2.67,2.67,0,0,0,.33,1.36,1.22,1.22,0,0,0,1.11.68A1.21,1.21,0,0,0-413-1630,2.66,2.66,0,0,0-412.63-1631.35Z"/></clipPath><clipPath id="clip-path-22"><path class="cls-2" d="M-404.82-1628.49H-406v-3.27q0-1.51-1.11-1.51a1.08,1.08,0,0,0-.88.42,1.51,1.51,0,0,0-.34,1v3.38h-1.22v-4.07q0-.75,0-1.63h1.07l.06.89h0a1.81,1.81,0,0,1,.63-.69,2,2,0,0,1,1.11-.32,1.71,1.71,0,0,1,1.27.52,2.56,2.56,0,0,1,.63,1.89v3.42"/></clipPath><clipPath id="clip-path-23"><path class="cls-2" d="M-396.61-1633.25H-398v2.77c0,.7.24,1.06.71,1.06a2.06,2.06,0,0,0,.54-.06l0,1a2.67,2.67,0,0,1-.95.14,1.42,1.42,0,0,1-1.13-.46,2.3,2.3,0,0,1-.41-1.54v-2.88h-.8v-.95h.8v-1l1.19-.38v1.42h1.34v.95"/></clipPath><clipPath id="clip-path-24"><path class="cls-2" d="M-390.16-1628.49h-1.22v-3.24q0-1.53-1.1-1.53a1.17,1.17,0,0,0-1.16.89,1.66,1.66,0,0,0-.06.46v3.43h-1.22v-8.32h1.22v3.44h0a1.83,1.83,0,0,1,1.65-.94,1.66,1.66,0,0,1,1.25.52,2.66,2.66,0,0,1,.62,1.91v3.39"/></clipPath><clipPath id="clip-path-25"><path class="cls-2" d="M-383.5-1631.61a3.18,3.18,0,0,1,0,.57h-3.66a1.69,1.69,0,0,0,.53,1.29,1.77,1.77,0,0,0,1.2.4,3.9,3.9,0,0,0,1.48-.27l.19.88a4.43,4.43,0,0,1-1.84.35,2.6,2.6,0,0,1-2-.78,2.94,2.94,0,0,1-.73-2.09,3.35,3.35,0,0,1,.68-2.15,2.29,2.29,0,0,1,1.92-.92,2,2,0,0,1,1.79.92A3.16,3.16,0,0,1-383.5-1631.61Zm-1.16-.33a1.76,1.76,0,0,0-.24-1,1.05,1.05,0,0,0-1-.53,1.14,1.14,0,0,0-1,.52,2,2,0,0,0-.36,1Z"/></clipPath><clipPath id="clip-path-26"><rect class="cls-1" x="298.73" y="-1995.18" width="1023.03" height="467.15"/></clipPath><clipPath id="clip-path-27"><rect class="cls-1" x="833.37" y="-1127.44" width="1024" height="547"/></clipPath><clipPath id="clip-path-28"><rect class="cls-1" x="-16" width="1055" height="552"/></clipPath><clipPath id="clip-path-29"><rect class="cls-1" y="-1538" width="1024" height="2061"/></clipPath><clipPath id="clip-path-31"><rect class="cls-1" y="43" width="346" height="437"/></clipPath><clipPath id="clip-path-32"><polygon class="cls-2" points="334.7 139.28 130.11 56.34 157.81 139.28 130.02 222.12 334.7 139.28"/></clipPath><clipPath id="clip-path-33"><rect class="cls-1" y="43" width="346" height="438"/></clipPath><clipPath id="clip-path-34"><polygon class="cls-2" points="342.75 230.31 342.75 48.46 -2 48.46 -2 479.47 342.75 479.47 342.75 230.31 122.09 230.31 122.09 48.46 342.75 48.46 342.75 230.31 342.75 230.31"/></clipPath><clipPath id="clip-path-36"><rect class="cls-1" x="121" y="48" width="222" height="183"/></clipPath><clipPath id="clip-path-37"><path class="cls-2" d="M342.75,139.28a6.66,6.66,0,0,0-.18-1.41c0-.18-.09-.27-.09-.44-.09-.35-.18-.61-.27-1-.09-.18-.09-.26-.18-.44a7.65,7.65,0,0,0-.62-1.23l-.09-.09a9.7,9.7,0,0,0-.8-1l-.26-.26a4.93,4.93,0,0,0-.8-.62c-.09-.09-.27-.17-.35-.26a10.35,10.35,0,0,0-1-.53c-.09-.09-.18-.09-.26-.18L133.29,49a8.12,8.12,0,0,0-8.49,1.59A8,8,0,0,0,122.68,59l26.81,80.38-27,80.38a8.06,8.06,0,0,0,7.61,10.57,7.39,7.39,0,0,0,3-.62l204.77-82.84H338c.09,0,.18-.09.27-.18a9.51,9.51,0,0,0,1-.53c.09-.09.27-.18.35-.26.26-.18.53-.44.8-.62l.27-.26a9.62,9.62,0,0,0,.89-1.06,5.42,5.42,0,0,0,.62-1.23c.09-.18.09-.26.18-.44.09-.35.18-.62.26-1,0-.18.09-.27.09-.44C342.66,140.24,342.75,139.72,342.75,139.28Zm-199.54-69,150.52,61H163.56Zm20.35,76.94H293.64l-150.52,61Z"/></clipPath><clipPath id="clip-path-38"><rect class="cls-1" y="48" width="343" height="432"/></clipPath><clipPath id="clip-path-39"><path class="cls-2" d="M89.4,479.38A8.14,8.14,0,1,0,83.74,477a7.71,7.71,0,0,0,5.66,2.38"/></clipPath><clipPath id="clip-path-41"><path class="cls-2" d="M309.12,456.29a7.93,7.93,0,0,0,5.75-13.48,8,8,0,0,0-11.59,11,8.36,8.36,0,0,0,5.84,2.47"/></clipPath><clipPath id="clip-path-43"><path class="cls-2" d="M322.22,432.94a7.63,7.63,0,0,0,3.63.88,8,8,0,1,0-3.63-.88"/></clipPath><clipPath id="clip-path-45"><path class="cls-2" d="M326.73,351.94A7.91,7.91,0,0,0,329.39,341a8,8,0,0,0-13.72,8.37,8,8,0,0,0,6.81,3.79,9.08,9.08,0,0,0,4.25-1.23"/></clipPath><clipPath id="clip-path-47"><path class="cls-2" d="M325,372.74a8,8,0,0,0,7.79,6.35,11.06,11.06,0,0,0,1.68-.18,8,8,0,1,0-9.47-6.17"/></clipPath><clipPath id="clip-path-49"><path class="cls-2" d="M310.27,329.11a8,8,0,0,0-1.15-11.28,8,8,0,1,0-10.18,12.43,7.84,7.84,0,0,0,5,1.76,8,8,0,0,0,6.28-2.91"/></clipPath><clipPath id="clip-path-51"><path class="cls-2" d="M-1.92,235.69a8.14,8.14,0,0,0,8,6.87,5.18,5.18,0,0,0,1.15-.09,8,8,0,1,0-2.3-15.87,8,8,0,0,0-6.81,9.08"/></clipPath><clipPath id="clip-path-53"><path class="cls-2" d="M20.56,173.47a8,8,0,1,0-8.15,13.75,8.3,8.3,0,0,0,4.07,1.05,8,8,0,0,0,6.9-4,7.76,7.76,0,0,0-2.83-10.84"/></clipPath><clipPath id="clip-path-55"><path class="cls-2" d="M31.88,291.22a8,8,0,1,0-5.49-2.11,8.27,8.27,0,0,0,5.49,2.11"/></clipPath><clipPath id="clip-path-57"><path class="cls-2" d="M58.61,291.22a8,8,0,1,0-6.37,14.63,8.23,8.23,0,0,0,3.19.62,8,8,0,0,0,3.18-15.25"/></clipPath><clipPath id="clip-path-59"><path class="cls-2" d="M40.73,153.82a8,8,0,0,0-12.21,10.4,8.13,8.13,0,0,0,6.1,2.82,8,8,0,0,0,5.22-1.94,8.12,8.12,0,0,0,.89-11.28"/></clipPath><clipPath id="clip-path-61"><path class="cls-2" d="M5.07,214.36a9.52,9.52,0,0,0,1.5.18,8.18,8.18,0,1,0-1.5-.18"/></clipPath><clipPath id="clip-path-63"><path class="cls-2" d="M14.8,269.1a7.94,7.94,0,1,0-7.08-4.23,8,8,0,0,0,7.08,4.23"/></clipPath><clipPath id="clip-path-65"><path class="cls-2" d="M342,400.06a8,8,0,1,0-9,6.87,4.23,4.23,0,0,0,1.06.09,8,8,0,0,0,8-7"/></clipPath><clipPath id="clip-path-67"><path class="cls-2" d="M139.13,297.39a8,8,0,1,0,8,8,8,8,0,0,0-8-8"/></clipPath><clipPath id="clip-path-69"><path class="cls-2" d="M222.49,471.45a8.05,8.05,0,1,0,8.05-8,8,8,0,0,0-8.05,8"/></clipPath><clipPath id="clip-path-71"><path class="cls-2" d="M137.81,471.45a8.05,8.05,0,1,0,8-8,8,8,0,0,0-8,8"/></clipPath><clipPath id="clip-path-73"><path class="cls-2" d="M223.73,297.39a8,8,0,1,0,8.05,8,8,8,0,0,0-8.05-8"/></clipPath><clipPath id="clip-path-75"><path class="cls-2" d="M167.36,297.39a8,8,0,1,0,8.05,8,8,8,0,0,0-8.05-8"/></clipPath><clipPath id="clip-path-77"><path class="cls-2" d="M109.67,471.45a8.05,8.05,0,1,0,8.05-8,8,8,0,0,0-8.05,8"/></clipPath><clipPath id="clip-path-79"><path class="cls-2" d="M166,471.45a8.05,8.05,0,1,0,8-8,8.06,8.06,0,0,0-8,8"/></clipPath><clipPath id="clip-path-81"><path class="cls-2" d="M194.26,471.45a8,8,0,1,0,8.05-8,8,8,0,0,0-8.05,8"/></clipPath><clipPath id="clip-path-83"><path class="cls-2" d="M195.59,297.39a8,8,0,1,0,8.05,8,8,8,0,0,0-8.05-8"/></clipPath><clipPath id="clip-path-85"><path class="cls-2" d="M102.85,305.32a8.05,8.05,0,1,0,8.05-8,8.07,8.07,0,0,0-8.05,8"/></clipPath><clipPath id="clip-path-87"><path class="cls-2" d="M94.27,139.1a8,8,0,1,0-7.79,8.19,7.94,7.94,0,0,0,7.79-8.19"/></clipPath><clipPath id="clip-path-89"><path class="cls-2" d="M74.71,304.61a8.07,8.07,0,0,0,7.44,8.55h.53a7.94,7.94,0,0,0,8-7.41,8.07,8.07,0,0,0-7.44-8.55,7.88,7.88,0,0,0-8.49,7.4"/></clipPath><clipPath id="clip-path-91"><path class="cls-2" d="M66.22,141.83a8,8,0,1,0-7.43,10.84,7.67,7.67,0,0,0,2.83-.52,7.94,7.94,0,0,0,4.6-10.32"/></clipPath><clipPath id="clip-path-93"><path class="cls-2" d="M287.18,313a8,8,0,1,0-10.27,4.76,7.55,7.55,0,0,0,2.74.44,7.78,7.78,0,0,0,7.52-5.2"/></clipPath><clipPath id="clip-path-95"><path class="cls-2" d="M252,297.39a8,8,0,1,0-.09,16H252a8,8,0,1,0,0-16"/></clipPath><clipPath id="clip-path-97"><path class="cls-2" d="M285.85,472a9.22,9.22,0,0,0,3.36-.71,8,8,0,1,0-10.62-4,8,8,0,0,0,7.26,4.67"/></clipPath><clipPath id="clip-path-99"><path class="cls-2" d="M250.72,471.8a8,8,0,0,0,8,7.31h.71a8,8,0,1,0-8.67-7.31"/></clipPath><clipPath id="clip-path-101"><path class="cls-2" d="M120.55,144.91a7.91,7.91,0,0,0,2.3-5.64,8.29,8.29,0,0,0-2.3-5.64,7.93,7.93,0,0,0-11.32,0,7.85,7.85,0,0,0,0,11.28,8.06,8.06,0,0,0,5.66,2.38,8.45,8.45,0,0,0,5.66-2.38"/></clipPath><clipPath id="clip-path-103"><path class="cls-2" d="M345.3,136.24a6.85,6.85,0,0,0-.18-1.45c0-.18-.09-.27-.09-.45-.09-.36-.18-.63-.27-1-.09-.18-.09-.27-.18-.45a7.86,7.86,0,0,0-.63-1.27l-.09-.09a10,10,0,0,0-.82-1l-.27-.27a5,5,0,0,0-.81-.64c-.09-.09-.27-.18-.36-.27a10.56,10.56,0,0,0-1-.54c-.09-.09-.18-.09-.27-.18L131.52,43.74a8.2,8.2,0,0,0-10.83,10.21l27.36,82.38-27.54,82.38a8.25,8.25,0,0,0,7.77,10.84,7.51,7.51,0,0,0,3.07-.63l209-84.91h.09c.09,0,.18-.09.27-.18a9.68,9.68,0,0,0,1-.54c.09-.09.27-.18.36-.27.27-.18.54-.45.81-.64l.27-.27A9.86,9.86,0,0,0,344,141a5.57,5.57,0,0,0,.63-1.27c.09-.18.09-.27.18-.45.09-.36.18-.64.27-1,0-.18.09-.27.09-.46C345.21,137.23,345.3,136.69,345.3,136.24ZM141.64,65.51,295.27,128H162.41Zm20.77,78.86H295.18L141.55,206.88Z"/></clipPath><clipPath id="clip-path-105"><rect class="cls-1" x="689" width="350" height="477"/></clipPath><clipPath id="clip-path-107"><rect class="cls-1" x="703" width="321" height="477"/></clipPath><clipPath id="clip-path-108"><rect class="cls-1" x="689" width="335" height="477"/></clipPath><clipPath id="clip-path-110"><polygon class="cls-2" points="715.54 354.91 942.47 459.99 911.75 354.91 942.57 249.94 715.54 354.91"/></clipPath><clipPath id="clip-path-112"><polygon class="cls-2" points="706.61 239.56 706.61 469.98 1089 469.98 1089 -76.12 706.61 -76.12 706.61 239.56 951.36 239.56 951.36 469.98 706.61 469.98 706.61 239.56 706.61 239.56"/></clipPath><clipPath id="clip-path-114"><rect class="cls-1" x="706" y="239" width="246" height="231"/></clipPath><clipPath id="clip-path-115"><path class="cls-2" d="M706.61,354.91a9.58,9.58,0,0,0,.2,1.79c0,.22.1.34.1.56.1.44.2.78.3,1.23.1.22.1.33.2.56a10.31,10.31,0,0,0,.68,1.56l.1.11a12.11,12.11,0,0,0,.89,1.23l.29.33a5.64,5.64,0,0,0,.88.79c.1.11.3.22.39.33a11.13,11.13,0,0,0,1.08.67c.1.11.2.11.29.22l226.93,105a8.18,8.18,0,0,0,9.42-2,11.09,11.09,0,0,0,2.35-10.61L921,354.8,950.91,253a11.09,11.09,0,0,0-2.35-10.61,8.33,8.33,0,0,0-6.09-2.79,7.33,7.33,0,0,0-3.33.78L712,345.31h-.1c-.1,0-.2.11-.3.22a10.22,10.22,0,0,0-1.08.67c-.1.11-.3.22-.39.33-.29.22-.59.56-.88.79l-.3.33a12,12,0,0,0-1,1.34,7.3,7.3,0,0,0-.68,1.56c-.1.22-.1.33-.2.56-.1.45-.2.79-.29,1.23,0,.22-.1.34-.1.56C706.7,353.68,706.61,354.35,706.61,354.91Zm221.33,87.44L761,365.07H905.37Zm-22.57-97.48H761.08l167-77.27Z"/></clipPath><clipPath id="clip-path-116"><rect class="cls-1" x="706" width="318" height="470"/></clipPath><clipPath id="clip-path-117"><path class="cls-2" d="M729.38-17.16a7.63,7.63,0,0,0-4-1.12,8.81,8.81,0,0,0-7.95,5.58c-2.26,5-.49,11.06,3.92,13.62s9.71.56,12-4.47.49-11.06-3.92-13.63"/></clipPath><clipPath id="clip-path-119"><path class="cls-2" d="M724.37,85.46c-4.22,2.91-5.5,9.16-2.95,13.85s8.05,6.25,12.27,3.35,5.5-9.15,2.95-14a8.66,8.66,0,0,0-7.56-4.8,9.16,9.16,0,0,0-4.71,1.56"/></clipPath><clipPath id="clip-path-121"><path class="cls-2" d="M726.24,59.11c-.89-4.8-4.62-8-8.64-8a10.8,10.8,0,0,0-1.86.22c-4.81,1.12-7.85,6.48-6.87,12s5.69,8.93,10.5,7.81,7.85-6.48,6.87-11.95"/></clipPath><clipPath id="clip-path-123"><path class="cls-2" d="M742.63,114.38a11.1,11.1,0,0,0,1.27,14.29c3.83,3.57,9.42,2.9,12.57-1.45a11.11,11.11,0,0,0-1.28-14.3,8,8,0,0,0-5.59-2.23,8.48,8.48,0,0,0-7,3.69"/></clipPath><clipPath id="clip-path-125"><path class="cls-2" d="M1021.78,162.4c4.52,2.24,9.72-.11,11.68-5.25s-.1-11.05-4.61-13.29a8.14,8.14,0,0,0-3.54-.78c-3.44,0-6.67,2.24-8.15,6.14-2,5,.1,10.94,4.62,13.18"/></clipPath><clipPath id="clip-path-127"><path class="cls-2" d="M707.39,24.49c-.59,5.58,2.84,10.61,7.75,11.28s9.33-3.24,9.92-8.71-2.85-10.6-7.65-11.28a4.13,4.13,0,0,0-1.18-.11c-4.42,0-8.25,3.69-8.83,8.82"/></clipPath><clipPath id="clip-path-129"><path class="cls-2" d="M932.45,154.58c4.91,0,8.93-4.47,8.93-10.16s-4-10.16-8.93-10.16-8.93,4.58-8.93,10.16,4,10.16,8.93,10.16"/></clipPath><clipPath id="clip-path-131"><path class="cls-2" d="M838.62,154.58c4.91,0,8.93-4.47,8.93-10.16s-4-10.16-8.93-10.16-8.93,4.58-8.93,10.16,3.93,10.16,8.93,10.16"/></clipPath><clipPath id="clip-path-133"><path class="cls-2" d="M901.14,154.58c4.91,0,8.93-4.47,8.93-10.16s-3.92-10.16-8.93-10.16-8.93,4.58-8.93,10.16,4,10.16,8.93,10.16"/></clipPath><clipPath id="clip-path-135"><path class="cls-2" d="M869.83,154.58c4.91,0,8.93-4.47,8.93-10.16s-3.93-10.16-8.93-10.16-8.93,4.58-8.93,10.16,4,10.16,8.93,10.16"/></clipPath><clipPath id="clip-path-137"><path class="cls-2" d="M972.7,144.53c0-5.58-4-10.16-8.93-10.16s-8.93,4.58-8.93,10.16,3.93,10.16,8.93,10.16,8.93-4.58,8.93-10.16"/></clipPath><clipPath id="clip-path-139"><path class="cls-2" d="M982.22,355.13c.1,5.58,4.22,10.05,9.12,9.83s8.74-4.8,8.64-10.39-4.22-9.94-9.12-9.83-8.83,4.8-8.64,10.38"/></clipPath><clipPath id="clip-path-141"><path class="cls-2" d="M1003.91,145.43c.29-5.58-3.34-10.39-8.25-10.83h-.59c-4.61,0-8.54,4-8.83,9.38-.29,5.58,3.34,10.38,8.25,10.83s9.12-3.8,9.42-9.38"/></clipPath><clipPath id="clip-path-143"><path class="cls-2" d="M1013.34,351.68c1.76,5.24,6.87,7.81,11.48,5.81s6.87-7.82,5.1-13.07c-1.38-4-4.71-6.47-8.34-6.47a7.58,7.58,0,0,0-3.14.66c-4.62,2-6.87,7.82-5.1,13.07"/></clipPath><clipPath id="clip-path-145"><path class="cls-2" d="M768.24,134.81c-1.67,5.25.69,11.06,5.4,13s9.71-.78,11.38-6-.68-11.05-5.4-13a7.43,7.43,0,0,0-3-.56c-3.63-.11-7.07,2.46-8.34,6.59"/></clipPath><clipPath id="clip-path-147"><path class="cls-2" d="M807.21,154.58c4.91,0,8.93-4.47,8.93-10s-3.92-10.16-8.83-10.16h-.1c-4.91,0-8.83,4.47-8.93,10.05.1,5.58,4,10.16,8.93,10.16"/></clipPath><clipPath id="clip-path-149"><path class="cls-2" d="M953.07,347.77a10.8,10.8,0,0,0-2.55,7.14,11.33,11.33,0,0,0,2.55,7.15,8,8,0,0,0,12.56,0,11,11,0,0,0,0-14.29,8.43,8.43,0,0,0-6.28-3,8.83,8.83,0,0,0-6.28,3"/></clipPath><clipPath id="clip-path-151"><path class="cls-2" d="M703.78,358.76a9.85,9.85,0,0,0,.2,1.83c0,.23.1.35.1.58.1.45.2.8.3,1.26.1.23.1.34.2.57a10.6,10.6,0,0,0,.7,1.6l.1.11a12.41,12.41,0,0,0,.91,1.26l.3.34a5.77,5.77,0,0,0,.9.81c.1.11.3.22.4.34a11.35,11.35,0,0,0,1.11.69c.1.11.2.11.3.23L940.9,476a8.32,8.32,0,0,0,9.62-2.06,11.4,11.4,0,0,0,2.4-10.87L922.56,358.64l30.55-104.38a11.4,11.4,0,0,0-2.4-10.87,8.49,8.49,0,0,0-6.21-2.86,7.45,7.45,0,0,0-3.4.8L709.29,348.91h-.1c-.1,0-.2.12-.3.23a10.41,10.41,0,0,0-1.1.69c-.1.12-.3.23-.4.34-.3.23-.6.58-.9.81l-.3.34a12.26,12.26,0,0,0-1,1.37,7.5,7.5,0,0,0-.7,1.6c-.1.23-.1.34-.2.57-.1.46-.2.81-.3,1.26,0,.23-.1.35-.1.58C703.87,357.5,703.78,358.19,703.78,358.76Zm225.9,89.61-170.4-79.2H906.63Zm-23-99.91H759.37l170.4-79.2Z"/></clipPath><clipPath id="clip-path-153"><path class="cls-2" d="M669.78-79.76a3.18,3.18,0,0,1-1-1.95,1.71,1.71,0,0,1,.43-1.34,1.62,1.62,0,0,1,1.16-.43,3.08,3.08,0,0,1,2.12,1,12.4,12.4,0,0,1,2.81,5.43l.05.19-.19-.05A12.4,12.4,0,0,1,669.78-79.76Zm-2.41,25.92h8.93v-14.5h-8.93Zm-2.23-15.62H676.3v-4.46H665.14Zm19-13.38a4.84,4.84,0,0,1,3.23-1.54,1.78,1.78,0,0,1,1.27.45c.91.91.4,3-1.09,4.5a15.72,15.72,0,0,1-5.38,3.28h-1.77A17.11,17.11,0,0,1,684.19-82.85Zm-3.43,29h8.93v-14.5h-8.93Zm0-15.62h11.16v-4.46H680.76Z"/></clipPath></defs><title>gifthub assets final</title><g class="cls-28"><rect class="cls-1" x="297.76" y="-1994.18" width="1024" height="2061"/><rect class="cls-1" x="297.76" y="-1994.18" width="1024" height="2061"/><rect class="cls-1" x="297.76" y="-1994.18" width="1024" height="2061"/><rect class="cls-1" x="297.76" y="-1994.18" width="1024" height="2061"/><rect class="cls-1" x="297.76" y="-1994.18" width="1024" height="2061"/></g><g class="cls-30"><g class="cls-31"><rect class="cls-32" x="-21" y="-5" width="1065" height="562"/></g></g><g class="cls-31"><g class="cls-33"><g class="cls-34"><g class="cls-35"><g class="cls-36"><rect class="cls-37" x="125.02" y="51.34" width="214.68" height="175.78"/></g></g><g class="cls-38"><g class="cls-36"><g class="cls-39"><g class="cls-40"><g class="cls-41"><g class="cls-42"><rect class="cls-43" x="117.09" y="43.46" width="230.66" height="191.86"/></g></g></g></g></g></g><g class="cls-44"><g class="cls-36"><rect class="cls-43" x="76.35" y="458.34" width="26.11" height="26.04"/></g></g><g class="cls-45"><g class="cls-36"><rect class="cls-43" x="296.09" y="435.36" width="26.05" height="25.93"/></g></g><g class="cls-46"><g class="cls-36"><rect class="cls-43" x="312.79" y="412.78" width="26.11" height="26.04"/></g></g><g class="cls-47"><g class="cls-36"><rect class="cls-43" x="309.49" y="332.19" width="26.08" height="25.98"/></g></g><g class="cls-48"><g class="cls-36"><rect class="cls-43" x="319.88" y="358.15" width="25.99" height="25.94"/></g></g><g class="cls-49"><g class="cls-36"><rect class="cls-43" x="290.97" y="311.02" width="26.12" height="26"/></g></g><g class="cls-50"><g class="cls-36"><rect class="cls-43" x="-7" y="221.53" width="26.09" height="26.03"/></g></g><g class="cls-51"><g class="cls-36"><rect class="cls-43" x="3.49" y="167.38" width="26.05" height="25.89"/></g></g><g class="cls-52"><g class="cls-36"><rect class="cls-43" x="18.82" y="270.25" width="26.05" height="25.97"/></g></g><g class="cls-53"><g class="cls-36"><rect class="cls-43" x="42.41" y="285.55" width="26.03" height="25.91"/></g></g><g class="cls-54"><g class="cls-36"><rect class="cls-43" x="21.58" y="146" width="26.02" height="26.04"/></g></g><g class="cls-55"><g class="cls-36"><rect class="cls-43" x="-6.43" y="193.54" width="26.02" height="25.99"/></g></g><g class="cls-56"><g class="cls-36"><rect class="cls-43" x="1.82" y="248.21" width="25.97" height="25.89"/></g></g><g class="cls-57"><g class="cls-36"><rect class="cls-43" x="321.05" y="386.1" width="26.04" height="25.93"/></g></g><g class="cls-58"><g class="cls-36"><rect class="cls-43" x="126.08" y="292.39" width="26.1" height="26.04"/></g></g><g class="cls-59"><g class="cls-36"><rect class="cls-43" x="217.49" y="458.43" width="26.1" height="26.04"/></g></g><g class="cls-60"><g class="cls-36"><rect class="cls-43" x="132.81" y="458.43" width="26.1" height="26.04"/></g></g><g class="cls-61"><g class="cls-36"><rect class="cls-43" x="210.68" y="292.39" width="26.1" height="26.04"/></g></g><g class="cls-62"><g class="cls-36"><rect class="cls-43" x="154.31" y="292.39" width="26.11" height="26.04"/></g></g><g class="cls-63"><g class="cls-36"><rect class="cls-43" x="104.67" y="458.43" width="26.1" height="26.04"/></g></g><g class="cls-64"><g class="cls-36"><rect class="cls-43" x="161.04" y="458.43" width="26.1" height="26.04"/></g></g><g class="cls-65"><g class="cls-36"><rect class="cls-43" x="189.26" y="458.43" width="26.02" height="26.04"/></g></g><g class="cls-66"><g class="cls-36"><rect class="cls-43" x="182.54" y="292.39" width="26.11" height="26.04"/></g></g><g class="cls-67"><g class="cls-36"><rect class="cls-43" x="97.85" y="292.3" width="26.1" height="26.04"/></g></g><g class="cls-68"><g class="cls-36"><rect class="cls-43" x="73.25" y="126.33" width="26.02" height="25.96"/></g></g><g class="cls-69"><g class="cls-36"><rect class="cls-43" x="69.7" y="292.19" width="25.96" height="25.98"/></g></g><g class="cls-70"><g class="cls-36"><rect class="cls-43" x="45.72" y="131.71" width="26.04" height="25.96"/></g></g><g class="cls-71"><g class="cls-36"><rect class="cls-43" x="266.56" y="297.28" width="26.1" height="25.91"/></g></g><g class="cls-72"><g class="cls-36"><rect class="cls-43" x="239" y="292.39" width="26.1" height="25.95"/></g></g><g class="cls-73"><g class="cls-36"><rect class="cls-43" x="272.86" y="450.99" width="26.08" height="25.99"/></g></g><g class="cls-74"><g class="cls-36"><rect class="cls-43" x="245.69" y="458.21" width="25.99" height="25.9"/></g></g><g class="cls-75"><g class="cls-36"><rect class="cls-43" x="101.84" y="126.26" width="26.01" height="26.04"/></g></g><g class="cls-76"><g class="cls-36"><rect class="cls-43" x="115.09" y="38.16" width="235.21" height="196.39"/></g></g></g></g></g><g class="cls-77"><g class="cls-31"><g class="cls-39"><g class="cls-78"><g class="cls-79"><g class="cls-80"><g class="cls-78"><g class="cls-81"><g class="cls-78"><rect class="cls-37" x="710.54" y="244.94" width="237.03" height="220.04"/></g></g><g class="cls-82"><g class="cls-78"><g class="cls-39"><g class="cls-83"><g class="cls-84"><g class="cls-85"><rect class="cls-43" x="701.61" y="234.56" width="254.75" height="240.42"/></g></g></g></g></g></g><g class="cls-86"><g class="cls-78"><rect class="cls-43" x="711.42" y="-23.28" width="27.87" height="30.33"/></g></g><g class="cls-87"><g class="cls-78"><rect class="cls-43" x="715.12" y="78.9" width="27.84" height="30.25"/></g></g><g class="cls-88"><g class="cls-78"><rect class="cls-43" x="703.68" y="46.06" width="27.74" height="30.2"/></g></g><g class="cls-89"><g class="cls-78"><rect class="cls-43" x="735.61" y="105.7" width="27.88" height="30.28"/></g></g><g class="cls-90"><g class="cls-78"><rect class="cls-43" x="1011.42" y="138.08" width="27.78" height="30.16"/></g></g><g class="cls-91"><g class="cls-78"><rect class="cls-43" x="702.33" y="10.67" width="27.8" height="30.18"/></g></g><g class="cls-92"><g class="cls-78"><rect class="cls-43" x="918.53" y="129.26" width="27.86" height="30.32"/></g></g><g class="cls-93"><g class="cls-78"><rect class="cls-43" x="824.69" y="129.26" width="27.86" height="30.32"/></g></g><g class="cls-94"><g class="cls-78"><rect class="cls-43" x="887.21" y="129.26" width="27.87" height="30.32"/></g></g><g class="cls-95"><g class="cls-78"><rect class="cls-43" x="855.9" y="129.26" width="27.87" height="30.32"/></g></g><g class="cls-96"><g class="cls-78"><rect class="cls-43" x="949.84" y="129.37" width="27.86" height="30.33"/></g></g><g class="cls-97"><g class="cls-78"><rect class="cls-43" x="977.21" y="339.75" width="27.77" height="30.22"/></g></g><g class="cls-98"><g class="cls-78"><rect class="cls-43" x="981.23" y="129.59" width="27.7" height="30.25"/></g></g><g class="cls-99"><g class="cls-78"><rect class="cls-43" x="1007.73" y="332.94" width="27.79" height="30.22"/></g></g><g class="cls-100"><g class="cls-78"><rect class="cls-43" x="762.71" y="123.23" width="27.85" height="30.15"/></g></g><g class="cls-101"><g class="cls-78"><rect class="cls-43" x="793.28" y="129.37" width="27.86" height="30.21"/></g></g><g class="cls-102"><g class="cls-78"><rect class="cls-43" x="945.52" y="339.75" width="27.76" height="30.32"/></g></g><g class="cls-103"><g class="cls-78"><rect class="cls-43" x="698.78" y="235.54" width="259.8" height="246.15"/></g></g></g></g></g></g></g></g></g></svg>