<svg id="Layer_1" data-name="Layer 1" xmlns="http://www.w3.org/2000/svg" xmlns:xlink="http://www.w3.org/1999/xlink" viewBox="0 0 1024 547"><defs><style>.cls-1,.cls-2{fill:none;}.cls-2{clip-rule:evenodd;}.cls-3{clip-path:url(#clip-path);}.cls-4{clip-path:url(#clip-path-2);}.cls-5{clip-path:url(#clip-path-3);}.cls-6{fill:#200809;}.cls-7{opacity:0.06;}.cls-10,.cls-7{isolation:isolate;}.cls-8{clip-path:url(#clip-path-5);}.cls-9{clip-path:url(#clip-path-6);}.cls-11{clip-path:url(#clip-path-8);}.cls-12{clip-path:url(#clip-path-9);}.cls-13{fill:#db685b;}.cls-14{clip-path:url(#clip-path-11);}.cls-15{clip-path:url(#clip-path-13);}.cls-16{clip-path:url(#clip-path-14);}.cls-17{clip-path:url(#clip-path-15);}.cls-18{clip-path:url(#clip-path-16);}.cls-19{clip-path:url(#clip-path-17);}</style><clipPath id="clip-path"><rect class="cls-1" x="-534.64" y="-867.75" width="1023.03" height="467.15"/></clipPath><clipPath id="clip-path-2"><rect class="cls-1" width="1024" height="547"/></clipPath><clipPath id="clip-path-3"><rect class="cls-1" y="-470" width="1024" height="2061"/></clipPath><clipPath id="clip-path-5"><rect class="cls-1" x="616" y="122" width="408" height="402"/></clipPath><clipPath id="clip-path-6"><rect class="cls-1" x="616" y="122.85" width="638.67" height="222.8"/></clipPath><clipPath id="clip-path-8"><rect class="cls-1" x="616" y="122" width="408" height="224"/></clipPath><clipPath id="clip-path-9"><path class="cls-2" d="M1136.21,311.52c.6,0,1.21-1,1.8-1.59,23.63-23.61,39.45-52.57,44.52-81.7,5.56-31.93-2.6-61.54-22.39-81.31-15.78-15.76-37.16-24.06-61.83-24.06-35.12,0-72.13,16.68-101.52,46-42.06,42-68.42,97.63-84.09,142.63h-9c-11.92-43.45-33.32-98.29-71.16-136.07-22.71-22.69-51.74-34.25-79.15-34.25-22.4,0-43.72,7.82-59.62,23.7-35.38,35.33-30.6,97.23,10.67,138.45,2.88,2.87,5.87,5.06,8.93,8.16H616v34.14h638.67V311.52ZM1032.82,204.88c19.63-19.59,44.11-31.2,65.5-31.2,7.58,0,18.2,1.63,25.8,9.22,18.42,18.4,8.08,60.85-22.13,91-14.69,14.67-31.79,26.74-49.55,37.6H967.1C981.16,275.82,1002.3,235.37,1032.82,204.88ZM740.47,267.4c-11.2-11.19-18.24-25.48-19.31-39.34-.49-6.45,0-18.51,8.64-27.17,7.25-7.24,16.83-8.74,23.6-8.74,15,0,30.76,6.93,43.12,19.27,22.3,22.27,40.94,56.65,54.21,100.1H812.62C782.26,299.1,757.71,284.61,740.47,267.4Z"/></clipPath><clipPath id="clip-path-11"><path class="cls-2" d="M859.77,380.71c-211.57,0-211.57,2.2-211.57,2.2l35.41,140.71H1155.7l54.56-145.78Z"/></clipPath><clipPath id="clip-path-13"><rect class="cls-1" x="-849.37" y="1127.44" width="1055" height="552"/></clipPath><clipPath id="clip-path-14"><rect class="cls-1" x="-144.37" y="1127.44" width="350" height="477"/></clipPath><clipPath id="clip-path-15"><rect class="cls-1" x="-53.23" y="925.05" width="37.92" height="37.84"/></clipPath><clipPath id="clip-path-16"><rect class="cls-1" x="-37.57" y="931.68" width="16.72" height="32.13"/></clipPath><clipPath id="clip-path-17"><path class="cls-2" d="M-163.59,1047.67a3.18,3.18,0,0,1-1-1.95,1.71,1.71,0,0,1,.43-1.34,1.62,1.62,0,0,1,1.16-.43,3.08,3.08,0,0,1,2.12,1,12.4,12.4,0,0,1,2.81,5.43l.05.19-.19-.05A12.4,12.4,0,0,1-163.59,1047.67Zm-2.41,25.92h8.93v-14.5H-166Zm-2.23-15.62h11.16v-4.46h-11.16Zm19-13.38A4.84,4.84,0,0,1-146,1043a1.78,1.78,0,0,1,1.27.45c.91.91.4,3-1.09,4.5a15.72,15.72,0,0,1-5.38,3.28h-1.77A17.11,17.11,0,0,1-149.18,1044.59Zm-3.43,29h8.93v-14.5h-8.93Zm0-15.62h11.16v-4.46h-11.16Z"/></clipPath></defs><title>gifthub assets final</title><g class="cls-3"><rect class="cls-1" x="-535.61" y="-866.75" width="1024" height="2061"/><rect class="cls-1" x="-535.61" y="-866.75" width="1024" height="2061"/><rect class="cls-1" x="-535.61" y="-866.75" width="1024" height="2061"/><rect class="cls-1" x="-535.61" y="-866.75" width="1024" height="2061"/><rect class="cls-1" x="-535.61" y="-866.75" width="1024" height="2061"/></g><g class="cls-4"><g class="cls-5"><rect class="cls-6" x="-5" y="-5" width="1034" height="557"/></g></g><g class="cls-5"><g class="cls-7"><g class="cls-8"><g class="cls-9"><g class="cls-8"><g class="cls-10"><g class="cls-11"><g class="cls-12"><g class="cls-11"><rect class="cls-13" x="611" y="117.85" width="648.67" height="232.8"/></g></g></g></g></g></g><g class="cls-14"><g class="cls-8"><rect class="cls-13" x="643.2" y="372.84" width="572.06" height="155.78"/></g></g></g></g></g></svg>