<svg id="Layer_1" data-name="Layer 1" xmlns="http://www.w3.org/2000/svg" xmlns:xlink="http://www.w3.org/1999/xlink" viewBox="0 0 37.92 40.11"><defs><style>.cls-1,.cls-2{fill:none;}.cls-2{clip-rule:evenodd;}.cls-3{clip-path:url(#clip-path);}.cls-4{clip-path:url(#clip-path-2);}.cls-5{clip-path:url(#clip-path-3);}.cls-6{clip-path:url(#clip-path-4);}.cls-7{clip-path:url(#clip-path-5);}.cls-8{isolation:isolate;}.cls-9{clip-path:url(#clip-path-6);}.cls-10{clip-path:url(#clip-path-7);}.cls-11{clip-path:url(#clip-path-8);}.cls-12{fill:#ef756b;}.cls-13{clip-path:url(#clip-path-9);}.cls-14{clip-path:url(#clip-path-11);}.cls-15{clip-path:url(#clip-path-12);}.cls-16{fill:#fff;}.cls-17{clip-path:url(#clip-path-14);}</style><clipPath id="clip-path"><rect class="cls-1" x="-481.41" y="-1792.79" width="1023.03" height="467.15"/></clipPath><clipPath id="clip-path-2"><rect class="cls-1" x="-796.14" y="202.39" width="1055" height="552"/></clipPath><clipPath id="clip-path-3"><rect class="cls-1" x="-91.14" y="202.39" width="350" height="477"/></clipPath><clipPath id="clip-path-4"><rect class="cls-1" width="37.92" height="37.84"/></clipPath><clipPath id="clip-path-5"><rect class="cls-1" x="-524.38" y="-1906.7" width="1024" height="2061"/></clipPath><clipPath id="clip-path-6"><rect class="cls-1" x="-0.05" y="-0.16" width="38" height="38"/></clipPath><clipPath id="clip-path-7"><path class="cls-2" d="M35.82,0H2.09A2.09,2.09,0,0,0,0,2.09V35.75a2.09,2.09,0,0,0,2.09,2.09H35.82a2.09,2.09,0,0,0,2.09-2.09V2.09A2.09,2.09,0,0,0,35.82,0"/></clipPath><clipPath id="clip-path-8"><rect class="cls-1" x="-0.05" y="-0.16" width="38" height="39"/></clipPath><clipPath id="clip-path-9"><rect class="cls-1" x="15.66" y="6.64" width="16.72" height="32.13"/></clipPath><clipPath id="clip-path-11"><rect class="cls-1" x="14.95" y="5.84" width="18" height="33"/></clipPath><clipPath id="clip-path-12"><path class="cls-2" d="M31.44,24.11l.74-5.71H26.52V14.75c0-1.65.46-2.78,2.84-2.78h3V6.86A40.73,40.73,0,0,0,28,6.64c-4.37,0-7.36,2.66-7.36,7.55V18.4H15.66v5.71h4.94V38.76h5.91V24.11Z"/></clipPath><clipPath id="clip-path-14"><path class="cls-2" d="M-110.36,122.63a3.18,3.18,0,0,1-1-1.95,1.71,1.71,0,0,1,.43-1.34,1.62,1.62,0,0,1,1.16-.43,3.08,3.08,0,0,1,2.12,1,12.4,12.4,0,0,1,2.81,5.43l.05.19-.19-.05A12.4,12.4,0,0,1-110.36,122.63Zm-2.41,25.92h8.93V134h-8.93ZM-115,132.92h11.16v-4.46H-115Zm19-13.38A4.84,4.84,0,0,1-92.73,118a1.78,1.78,0,0,1,1.27.45c.91.91.4,3-1.09,4.5a15.72,15.72,0,0,1-5.38,3.28H-99.7A17.11,17.11,0,0,1-96,119.54Zm-3.43,29h8.93V134h-8.93Zm0-15.62h11.16v-4.46H-99.38Z"/></clipPath></defs><title>gifthub assets final</title><g class="cls-3"><rect class="cls-1" x="-482.38" y="-1791.79" width="1024" height="2061"/><rect class="cls-1" x="-482.38" y="-1791.79" width="1024" height="2061"/><rect class="cls-1" x="-482.38" y="-1791.79" width="1024" height="2061"/><rect class="cls-1" x="-482.38" y="-1791.79" width="1024" height="2061"/><rect class="cls-1" x="-482.38" y="-1791.79" width="1024" height="2061"/></g><g class="cls-6"><g class="cls-7"><g class="cls-8"><g class="cls-9"><g class="cls-10"><g class="cls-11"><rect class="cls-12" x="-5" y="-5" width="47.92" height="47.84"/></g></g></g></g></g></g><g class="cls-13"><g class="cls-7"><g class="cls-8"><g class="cls-14"><g class="cls-15"><g class="cls-14"><rect class="cls-16" x="10.66" y="1.64" width="26.72" height="42.13"/></g></g></g></g></g></g></svg>