<svg id="Layer_1" data-name="Layer 1" xmlns="http://www.w3.org/2000/svg" xmlns:xlink="http://www.w3.org/1999/xlink" viewBox="0 0 30.35 34.62"><defs><style>.cls-1,.cls-2{fill:none;}.cls-2{clip-rule:evenodd;}.cls-3{clip-path:url(#clip-path);}.cls-4{clip-path:url(#clip-path-2);}.cls-5{clip-path:url(#clip-path-3);}.cls-6{clip-path:url(#clip-path-4);}.cls-7{isolation:isolate;}.cls-8{clip-path:url(#clip-path-5);}.cls-9{clip-path:url(#clip-path-6);}.cls-10{clip-path:url(#clip-path-7);}.cls-11{clip-path:url(#clip-path-8);}.cls-12{clip-path:url(#clip-path-9);}.cls-13{fill:#fff;}</style><clipPath id="clip-path"><rect class="cls-1" x="-364.62" y="-1908.76" width="1023.03" height="467.15"/></clipPath><clipPath id="clip-path-2"><rect class="cls-1" x="-679.35" y="86.43" width="1055" height="552"/></clipPath><clipPath id="clip-path-3"><rect class="cls-1" x="25.65" y="86.43" width="350" height="477"/></clipPath><clipPath id="clip-path-4"><rect class="cls-1" x="-663.35" y="-1451.57" width="1024" height="2061"/></clipPath><clipPath id="clip-path-5"><rect class="cls-1" x="39.65" y="86.43" width="321" height="477"/></clipPath><clipPath id="clip-path-6"><rect class="cls-1" x="116.79" y="-115.96" width="37.92" height="37.84"/></clipPath><clipPath id="clip-path-7"><rect class="cls-1" x="132.45" y="-109.33" width="16.72" height="32.13"/></clipPath><clipPath id="clip-path-8"><path class="cls-2" d="M6.43,6.66a3.18,3.18,0,0,1-1-1.95A1.71,1.71,0,0,1,5.9,3.38a1.62,1.62,0,0,1,1.16-.43,3.08,3.08,0,0,1,2.12,1A12.4,12.4,0,0,1,12,9.34l.05.19-.19-.05A12.4,12.4,0,0,1,6.43,6.66ZM4,32.58h8.93V18.08H4ZM1.79,17H12.94V12.5H1.79Zm19-13.38A4.84,4.84,0,0,1,24.06,2a1.78,1.78,0,0,1,1.27.45c.91.91.4,3-1.09,4.5a15.72,15.72,0,0,1-5.38,3.28H17.09A17.11,17.11,0,0,1,20.83,3.58Zm-3.43,29h8.93V18.08H17.41Zm0-15.62H28.56V12.5H17.41Z"/></clipPath><clipPath id="clip-path-9"><rect class="cls-1" x="-510.21" y="-1288.96" width="1024" height="2061"/></clipPath></defs><title>gifthub assets final</title><g class="cls-3"><rect class="cls-1" x="-365.59" y="-1907.76" width="1024" height="2061"/><rect class="cls-1" x="-365.59" y="-1907.76" width="1024" height="2061"/><rect class="cls-1" x="-365.59" y="-1907.76" width="1024" height="2061"/><rect class="cls-1" x="-365.59" y="-1907.76" width="1024" height="2061"/><rect class="cls-1" x="-365.59" y="-1907.76" width="1024" height="2061"/></g><g class="cls-11"><g class="cls-12"><rect class="cls-13" x="-3.21" y="-2.96" width="36.78" height="40.54"/></g></g></svg>